<svg width="105" height="33" viewBox="0 0 105 33" fill="none" xmlns="http://www.w3.org/2000/svg">
<g id="crosbee logo">
<path id="Vector" d="M30.9396 25.184C30.8224 24.055 30.6161 22.9371 30.3227 21.8406C29.7555 19.7092 28.9607 17.6451 27.9522 15.6837C26.6633 13.1529 25.1078 10.8076 23.1837 8.70949C23.1296 8.6483 23.0887 8.5766 23.0635 8.49888C22.8128 7.79952 22.5404 7.10817 22.2348 6.4317C21.6442 5.1234 20.9585 3.87004 20.0715 2.73572C19.5039 1.98201 18.815 1.3279 18.0329 0.800168C17.6922 0.575608 17.326 0.392329 16.9421 0.254185C16.5041 0.0843571 16.0382 -0.0018347 15.5685 7.87854e-05C15.0634 -0.00320993 14.563 0.0964937 14.0977 0.293101L14.0679 0.303403C13.2906 0.624375 12.5866 1.09984 11.9985 1.70098C11.288 2.41075 10.6682 3.20584 10.1533 4.06806C9.35567 5.39037 8.69413 6.79015 8.17886 8.24592C8.13815 8.35835 8.07418 8.46092 7.99114 8.54696C7.50201 9.05746 7.03882 9.59161 6.60157 10.1494C4.03739 13.3902 2.10916 17.0866 0.918536 21.0439C0.612438 22.0564 0.377596 23.0891 0.215737 24.1344C0.112081 24.8005 0.0459686 25.4719 0.0177169 26.1455C-0.0462984 27.2432 0.0634128 28.3442 0.342792 29.4077C0.565993 30.2089 0.915102 30.9563 1.48741 31.5744C1.81521 31.9351 2.21324 32.225 2.65708 32.4264C3.10093 32.6277 3.58123 32.7363 4.06853 32.7454C4.78822 32.7625 5.50437 32.6393 6.17692 32.3825C7.21738 32.0059 8.1491 31.4348 9.02931 30.7732L9.26625 30.5946L9.41391 30.732C9.98366 31.2696 10.6297 31.7201 11.3311 32.0689C12.4389 32.6054 13.6433 32.9133 14.8726 32.9743C15.8928 33.0455 16.918 32.9684 17.9161 32.7454C19.3306 32.4383 20.6362 31.7559 21.6957 30.7698C21.8491 30.6267 21.7975 30.629 21.967 30.7514L22.0116 30.7858C22.691 31.3095 23.4261 31.7566 24.2035 32.1193C25.0838 32.5199 25.996 32.7843 26.977 32.7454C27.6204 32.7261 28.247 32.5356 28.7923 32.1937C29.4526 31.7642 29.9755 31.1539 30.2986 30.4355C30.7199 29.5587 30.8996 28.6213 30.9854 27.661C31.0463 26.8357 31.031 26.0065 30.9396 25.184ZM10.1465 6.48092C10.3819 5.95153 10.6495 5.43702 10.9477 4.94026C11.4009 4.13794 11.9455 3.39086 12.5708 2.71397C12.9595 2.29016 13.407 1.92435 13.8997 1.62773C14.3646 1.33147 14.9002 1.16467 15.4511 1.14455C16.002 1.12442 16.5483 1.25171 17.0336 1.51327C17.5205 1.76754 17.9656 2.09488 18.3534 2.4839C18.7763 2.90024 19.1595 3.3551 19.498 3.84257C20.1275 4.73652 21.1108 6.69382 21.1154 6.70412C21.1199 6.71442 21.1096 6.7293 21.1005 6.72587C20.9262 6.61426 20.7598 6.49073 20.6026 6.35615C19.7338 5.71402 18.8181 5.15545 17.7948 4.78802C17.0796 4.51958 16.3182 4.39585 15.5548 4.42404C15.2789 4.43777 15.0019 4.41602 14.7238 4.44235C14.085 4.50954 13.4599 4.67237 12.8695 4.92538C11.9488 5.32092 11.0834 5.83459 10.2953 6.45345C10.2495 6.48779 10.2025 6.51869 10.1568 6.55188C10.1511 6.54815 10.1463 6.54326 10.1427 6.53754C10.1391 6.53182 10.1367 6.52541 10.1357 6.51871C10.1348 6.51201 10.1352 6.50518 10.1371 6.49867C10.1389 6.49215 10.1421 6.48611 10.1465 6.48092ZM18.2366 11.3456C18.0317 14.1579 17.1996 16.8031 16.0825 19.3716C15.9062 19.7745 15.7219 20.1729 15.5102 20.5918C15.2629 20.0939 15.0431 19.6131 14.8348 19.1278C14.1352 17.5292 13.5891 15.8678 13.2037 14.1659C13.0024 13.2804 12.8658 12.3814 12.7951 11.476C12.7371 10.7651 12.7409 10.0505 12.8066 9.34018C12.8651 8.57142 13.0686 7.82069 13.4063 7.12763C13.6029 6.7316 13.8796 6.38079 14.219 6.09747C14.5395 5.83971 14.9191 5.66583 15.3236 5.59155C15.5178 5.56273 15.716 5.57919 15.9028 5.63962C16.4931 5.8001 17.0057 6.16836 17.3461 6.67665C17.6985 7.19521 17.9436 7.77894 18.0672 8.39358C18.2696 9.36375 18.3266 10.3586 18.2366 11.3456ZM8.37802 29.8575C7.62476 30.45 6.79018 30.9311 5.89992 31.286C5.32062 31.5206 4.69903 31.6329 4.07425 31.6156C3.69464 31.6054 3.32242 31.5083 2.98612 31.332C2.64982 31.1556 2.35837 30.9045 2.13412 30.5981C1.76259 30.0944 1.50058 29.5185 1.36494 28.9075C1.22423 28.3184 1.14748 27.7159 1.13601 27.1104C1.11044 25.7972 1.24497 24.4857 1.53663 23.205C2.28063 19.7711 3.67478 16.6165 5.51876 13.6451C5.99416 12.882 6.50428 12.1392 7.04912 11.4165C7.08804 11.3662 7.1281 11.3169 7.16358 11.2677C7.23684 11.2677 7.20937 11.3124 7.2025 11.349C7.1075 11.753 7.01135 12.1571 6.91863 12.5623C6.68971 13.5764 6.50314 14.5986 6.35548 15.6287C6.07549 17.5336 5.96593 19.4596 6.02812 21.3839C6.09222 23.2004 6.33831 24.9871 6.93123 26.7144C7.29288 27.798 7.82661 28.8164 8.51195 29.7304C8.48562 29.7923 8.42724 29.8197 8.37802 29.8575ZM9.28227 28.8743C8.6864 28.0364 8.22741 27.1091 7.92247 26.1272C7.62523 25.1832 7.41827 24.2132 7.30437 23.2301C7.14186 21.8246 7.09706 20.408 7.17045 18.995C7.21395 17.9649 7.31467 16.945 7.45546 15.9252C7.76562 13.6276 8.29925 11.3658 9.04877 9.17192C9.07253 9.08717 9.11519 9.0089 9.17354 8.943C10.0892 8.0273 11.0713 7.186 12.1908 6.52098C12.2777 6.46947 12.367 6.42483 12.4552 6.37676C12.4998 6.36302 12.5135 6.37676 12.5044 6.42254C12.1235 7.14224 11.8706 7.92265 11.7569 8.72895C11.6416 9.49736 11.6033 10.2754 11.6425 11.0514C11.6782 11.8011 11.7592 12.548 11.8851 13.288C12.0878 14.4677 12.375 15.6314 12.7447 16.7699C13.2896 18.4604 13.9753 20.1022 14.7948 21.678C14.8234 21.7215 14.8386 21.7725 14.8386 21.8245C14.8386 21.8766 14.8234 21.9276 14.7948 21.9711C13.7487 23.881 12.4999 25.6727 11.0702 27.3153C10.5846 27.8688 10.0691 28.3953 9.52608 28.8926C9.38185 29.0265 9.40589 29.0437 9.28227 28.8743ZM20.4309 30.3623C19.5611 31.0244 18.5507 31.4775 17.4778 31.6866C16.5552 31.8755 15.6096 31.9257 14.6723 31.8354C13.1465 31.6912 11.7489 31.2093 10.5517 30.2329C10.4372 30.1368 10.3227 30.0338 10.2083 29.9342C10.19 29.9182 10.1739 29.8987 10.1453 29.8678C12.3201 27.8819 14.037 25.5514 15.5136 23.0104C17.0016 25.5743 18.738 27.9322 20.9471 29.9262C20.7883 30.0833 20.6176 30.228 20.4366 30.3588L20.4309 30.3623ZM21.8044 28.9647C21.7781 29.0002 21.7506 29.0345 21.7243 29.0689C21.6533 29.0689 21.6247 29.0128 21.5847 28.9773C20.3335 27.8271 19.2095 26.5458 18.2321 25.1554C17.5068 24.1396 16.8399 23.0833 16.2347 21.9917C16.203 21.943 16.1861 21.8861 16.1861 21.828C16.1861 21.7699 16.203 21.713 16.2347 21.6643C17.2351 19.7414 18.0334 17.7198 18.6167 15.6322C18.9156 14.5636 19.1348 13.4744 19.2725 12.3734C19.3997 11.4024 19.4258 10.4208 19.3504 9.44434C19.2588 8.38785 19.0299 7.36685 18.5194 6.42369C18.5102 6.38134 18.5194 6.36302 18.5686 6.3779C19.1234 6.67714 19.6502 7.02575 20.1424 7.41951C20.8083 7.9414 21.436 8.5102 22.0208 9.12156C22.0864 9.18907 22.136 9.27042 22.1661 9.35964C22.6743 10.8769 23.0793 12.4268 23.3783 13.9988C23.5626 14.9591 23.7114 15.9252 23.8167 16.897C24.0068 18.5468 24.0581 20.2096 23.97 21.868C23.8808 23.3194 23.6736 24.7513 23.2215 26.1409C22.9072 27.1514 22.4305 28.104 21.8101 28.9613L21.8044 28.9647ZM29.8831 27.2718C29.8635 28.0738 29.7115 28.867 29.4333 29.6194C29.2685 30.0642 29.0193 30.4731 28.6996 30.8236C28.4797 31.0624 28.2149 31.2555 27.9203 31.3918C27.6257 31.5281 27.307 31.6049 26.9827 31.6179C26.2284 31.6603 25.5233 31.4657 24.84 31.1738C24.0397 30.8192 23.2871 30.3654 22.5999 29.8232C22.5919 29.7831 22.6171 29.7613 22.6354 29.7385C23.4618 28.6659 24.009 27.4572 24.3993 26.1672C24.6699 25.235 24.8613 24.2816 24.9716 23.3171C25.1445 21.8358 25.1893 20.3422 25.1055 18.8531C24.9815 16.4404 24.6204 14.0458 24.0273 11.7038C24.0193 11.6729 23.9597 11.4749 24.0547 11.5298C24.5126 12.1227 24.9361 12.7443 25.339 13.3773C26.8216 15.6854 28.0001 18.1753 28.845 20.7852C29.2424 22.008 29.5383 23.2614 29.7298 24.5327C29.8683 25.4376 29.9197 26.3537 29.8831 27.2684V27.2718Z" fill="black"/>
<path id="Union" fill-rule="evenodd" clip-rule="evenodd" d="M47.3137 21.9425H47.3138C47.4546 21.9448 47.4546 21.9471 47.4408 22.0798C47.2867 23.247 46.7016 24.3142 45.8006 25.0719C44.9632 25.8327 43.8665 26.2447 42.7353 26.2234C42.0815 26.2257 41.4347 26.0884 40.8382 25.8207C40.2417 25.5531 39.7092 25.1612 39.2763 24.6713C38.81 24.1704 38.4729 23.5634 38.2942 22.9028C38.235 22.701 38.1884 22.4957 38.1545 22.2882C38 21.3541 38 20.2027 38 18.6334C38 15.4674 38 13.9988 39.2717 12.5944C39.5204 12.3202 39.7991 12.0748 40.1027 11.863C40.5915 11.5112 41.1463 11.2617 41.7338 11.1293C43.3099 10.7756 44.7086 11.1499 45.907 12.2258C46.7219 12.9491 47.2551 13.937 47.4122 15.0152C47.4259 15.0645 47.4259 15.1148 47.4259 15.1629C47.3925 15.2018 47.3519 15.1985 47.3133 15.1954C47.3029 15.1946 47.2927 15.1938 47.2829 15.1938C46.8731 15.2156 46.4633 15.2339 46.0524 15.2339C45.9608 15.2339 45.9242 15.2213 45.9082 15.1194C45.8144 14.4844 45.5302 13.8927 45.093 13.4227C44.6559 12.9526 44.0864 12.6263 43.4598 12.4868C42.4274 12.2601 41.5083 12.5348 40.7299 13.2411C40.3775 13.5503 40.0964 13.9323 39.9061 14.3607C39.7158 14.7892 39.6208 15.2539 39.6277 15.7226C39.6231 17.6479 39.6231 19.5731 39.6277 21.4984C39.6262 22.1751 39.8346 22.8357 40.2241 23.3891C40.6135 23.9425 41.1649 24.3617 41.8024 24.5888C43.184 25.0616 44.7018 24.4973 45.4881 23.2153C45.7071 22.8608 45.8559 22.4676 45.9265 22.0569C45.9414 21.9711 45.9597 21.9287 46.0638 21.9287C46.4805 21.9425 46.8971 21.9425 47.3137 21.9425ZM81.9167 18.5086C82.4362 18.7481 82.9054 19.084 83.2994 19.4987C83.9388 20.156 84.2965 21.0369 84.2964 21.9539C84.317 23.8414 83.09 25.4885 81.0789 25.9017C80.8009 25.9586 80.5179 25.9869 80.2341 25.9864H75.8583H75.7633C75.6992 25.991 75.674 25.9635 75.674 25.8994V25.7666V11.3936C75.674 11.3712 75.6738 11.3512 75.6736 11.3332V11.3332C75.6729 11.2518 75.6725 11.2133 75.6916 11.1954C75.7088 11.1793 75.7418 11.1802 75.8047 11.1818C75.8276 11.1823 75.8543 11.183 75.8857 11.183H79.9961C80.8014 11.1719 81.5924 11.3967 82.2716 11.8297C83.0737 12.3641 83.6489 13.1771 83.886 14.1113C84.123 15.0455 84.005 16.0345 83.5547 16.8866C83.1985 17.5102 82.6856 18.0299 82.0667 18.3941C82.0075 18.4184 81.9557 18.4579 81.9167 18.5086ZM77.1551 12.7225V17.7028L77.1551 17.7229C77.1549 17.7884 77.1549 17.8203 77.1708 17.8351C77.1858 17.8492 77.2153 17.848 77.2727 17.8456L77.2936 17.8447H79.7752C80.2113 17.8404 80.6403 17.7334 81.0274 17.5322C82.354 16.8569 82.9148 15.2304 82.2395 13.9358C81.7508 13.0018 80.9346 12.5646 79.8965 12.544C79.3242 12.5356 78.7519 12.5384 78.1796 12.5412C77.8934 12.5426 77.6072 12.544 77.3211 12.544C77.3047 12.544 77.2899 12.5438 77.2765 12.5437C77.2173 12.543 77.1867 12.5427 77.171 12.5578C77.1542 12.574 77.1544 12.608 77.1549 12.6783L77.1551 12.7225ZM80.1346 24.6323C80.3999 24.6298 80.6637 24.5913 80.9186 24.5178V24.5121C81.2542 24.4168 81.5673 24.255 81.8391 24.0363C82.111 23.8176 82.3362 23.5465 82.5012 23.2391C82.6663 22.9318 82.7679 22.5943 82.8 22.2469C82.8321 21.8995 82.7941 21.5492 82.6882 21.2167C82.4524 20.5002 81.9671 19.9886 81.3147 19.6269C80.809 19.3516 80.241 19.2109 79.6653 19.2182H77.3371H77.2421C77.1769 19.2137 77.1551 19.2629 77.1551 19.3075V19.4403V24.4663L77.1551 24.4874V24.4875C77.155 24.5659 77.1549 24.6023 77.173 24.619C77.1888 24.6335 77.2182 24.6332 77.2732 24.6326L77.2902 24.6324L77.3142 24.6323H80.1346ZM50.8541 16.5326C50.8995 16.4785 50.9348 16.4167 50.9582 16.35C51.4332 15.3805 52.1647 14.7177 53.228 14.4556C53.7956 14.3285 54.3862 14.3466 54.9449 14.5083C55.0205 14.5277 55.0285 14.5586 55.0182 14.6285C54.9849 14.8504 54.9536 15.073 54.9224 15.2958L54.9224 15.2958L54.9223 15.2959L54.9223 15.2959L54.9223 15.2959L54.9223 15.296L54.9222 15.2966C54.8966 15.4791 54.871 15.6617 54.8442 15.844C54.8339 15.9207 54.8042 15.9333 54.7298 15.9162C54.5337 15.8691 54.3337 15.8407 54.1323 15.8314C53.802 15.8193 53.4728 15.8763 53.1659 15.9989C52.8589 16.1215 52.5811 16.307 52.3501 16.5434C51.91 16.9894 51.5769 17.5295 51.376 18.123C51.1479 18.7648 51.004 19.4335 50.9479 20.1123C50.9044 20.5702 50.901 21.0189 50.901 21.4733V25.7324V25.8469C50.901 25.9831 50.901 25.9865 50.7671 25.9865H49.5366C49.4485 25.9865 49.4061 25.9625 49.4153 25.8721C49.4176 25.8278 49.4176 25.7835 49.4153 25.7393V14.815C49.4153 14.5792 49.4153 14.5792 49.6591 14.5792H50.6251C50.8541 14.5792 50.8541 14.5792 50.8541 14.7933V16.5326ZM98.0308 20.7373C98.0876 20.7402 98.1445 20.7402 98.2013 20.7373H104.126C104.147 20.7373 104.168 20.7383 104.189 20.7393C104.275 20.7433 104.362 20.7473 104.436 20.6858C104.436 19.8525 104.38 17.6491 104.322 17.4167C103.739 15.2088 101.355 13.8776 99.1708 14.5449C97.5226 15.0485 96.2955 16.6395 96.2841 18.353C96.2788 19.2067 96.2805 20.0598 96.2823 20.9131V20.9132V20.9134V20.9135V20.9136V20.9137C96.2832 21.3405 96.2841 21.7674 96.2841 22.1944C96.2871 22.4312 96.312 22.6672 96.3585 22.8995C96.6271 24.0868 97.2494 24.9754 98.2254 25.5653C98.8886 25.9926 99.664 26.2129 100.453 26.1983C100.683 26.1984 100.912 26.1812 101.14 26.1468C101.173 26.1435 101.207 26.1385 101.24 26.1319H101.264C101.848 26.037 102.399 25.7982 102.867 25.4371C103.43 25.0246 103.881 24.4786 104.181 23.8484C104.272 23.6652 104.244 23.5966 104.051 23.505C103.753 23.3688 103.454 23.2326 103.158 23.0941C102.887 22.9682 102.857 22.9888 102.717 23.2452C102.155 24.2753 101.302 24.795 100.119 24.7194C98.9099 24.6416 97.9049 23.5897 97.8293 22.342C97.8117 22.0553 97.8158 21.7672 97.82 21.4789V21.4787V21.4785V21.4782V21.4779V21.4777V21.4774C97.8225 21.299 97.8251 21.1205 97.8225 20.9422C97.8179 20.7888 97.8763 20.7236 98.0308 20.7373ZM97.7574 18.9901L97.7574 18.9894V18.9893V18.9892V18.9891V18.9891V18.989C97.7536 18.7483 97.7498 18.5089 97.7675 18.2741C97.8465 17.2096 98.3639 16.4083 99.3334 15.9505C100.326 15.4823 101.561 15.7868 102.298 16.6464C102.733 17.1374 102.972 17.7723 102.966 18.4286V19.318L102.967 19.3571V19.3572C102.967 19.4168 102.967 19.4469 102.952 19.4619C102.937 19.4771 102.907 19.4768 102.845 19.4762L102.8 19.4759H97.9381C97.919 19.4761 97.902 19.4765 97.8867 19.4768C97.8217 19.4783 97.7895 19.479 97.7739 19.4633C97.7586 19.4479 97.7591 19.4168 97.7601 19.3553C97.7603 19.3378 97.7607 19.3178 97.7607 19.2951C97.7607 19.1933 97.759 19.0916 97.7574 18.9901ZM87.8997 20.7373C87.8428 20.7402 87.7859 20.7402 87.7291 20.7373C87.5746 20.7236 87.5162 20.7888 87.5208 20.9422C87.5234 21.1206 87.5208 21.2992 87.5183 21.4777V21.4779V21.4782V21.4785V21.4787V21.4789C87.5141 21.7672 87.51 22.0553 87.5277 22.342C87.6032 23.5897 88.6082 24.6416 89.8169 24.7194C91.0004 24.795 91.8532 24.2753 92.4152 23.2452C92.5548 22.9888 92.5857 22.9682 92.8559 23.0941C93.1523 23.2326 93.4511 23.3688 93.7498 23.505C93.9421 23.5966 93.9707 23.6652 93.8792 23.8484C93.5796 24.4786 93.128 25.0246 92.5651 25.4371C92.097 25.7982 91.5462 26.037 90.9627 26.1319H90.9386C90.9053 26.1385 90.8717 26.1435 90.8379 26.1468C90.6106 26.1812 90.381 26.1984 90.1511 26.1983C89.3623 26.2129 88.5869 25.9926 87.9237 25.5653C86.9477 24.9754 86.3254 24.0868 86.0568 22.8995C86.0103 22.6672 85.9854 22.4312 85.9824 22.1944C85.9824 21.7674 85.9815 21.3405 85.9806 20.9137V20.9136V20.9135V20.9134V20.9132C85.9789 20.0599 85.9771 19.2067 85.9824 18.353C85.9939 16.6395 87.2209 15.0485 88.8691 14.5449C91.0531 13.8776 93.4373 15.2088 94.0199 17.4167C94.0783 17.6491 94.1344 19.8525 94.1344 20.6858C94.06 20.7473 93.9731 20.7433 93.8872 20.7393C93.8661 20.7383 93.845 20.7373 93.8242 20.7373H87.8997ZM87.4557 18.9894L87.4558 18.9901C87.4574 19.0916 87.459 19.1933 87.459 19.2951C87.459 19.3178 87.4587 19.3378 87.4584 19.3553C87.4574 19.4168 87.4569 19.4479 87.4722 19.4633C87.4879 19.479 87.52 19.4783 87.585 19.4768C87.6003 19.4765 87.6173 19.4761 87.6364 19.4759H92.4987L92.5432 19.4762C92.605 19.4768 92.6356 19.4771 92.6507 19.4619C92.6656 19.4469 92.6654 19.4168 92.6649 19.3571L92.6647 19.318V18.4286C92.67 17.7723 92.4318 17.1374 91.9963 16.6464C91.2591 15.7868 90.0241 15.4823 89.0317 15.9505C88.0622 16.4083 87.5448 17.2096 87.4658 18.2741C87.4481 18.5089 87.4519 18.7483 87.4557 18.9891V18.9891V18.9892V18.9893V18.9894ZM70.834 26.145C70.6265 26.1804 70.3883 26.2004 70.1351 26.2004C69.8355 26.2077 69.5367 26.1748 69.2465 26.103C69.049 26.0605 68.8545 26.0037 68.6648 25.933C67.4497 25.4835 66.7433 24.6127 66.5456 23.3206C66.5206 23.1078 66.5088 22.8938 66.5101 22.6796C66.509 22.6075 66.533 22.58 66.6074 22.58H67.8951C67.9912 22.58 67.9912 22.6246 67.9912 22.6945C67.9787 22.9213 67.9968 23.1489 68.045 23.3709C68.1134 23.7072 68.2777 24.0164 68.518 24.2614C68.7582 24.5063 69.0643 24.6765 69.3991 24.7513C69.9683 24.9197 70.5795 24.8724 71.1161 24.6186C71.8086 24.2832 72.1783 23.7269 72.16 22.944C72.1496 22.5678 71.9985 22.2092 71.7364 21.939C71.4817 21.6757 71.1846 21.4571 70.8574 21.2923C70.5365 21.118 70.201 20.9688 69.8685 20.8209L69.8685 20.8209C69.736 20.762 69.604 20.7033 69.4735 20.6433C69.0294 20.4543 68.6011 20.23 68.1927 19.9726C67.945 19.8086 67.7148 19.6195 67.5059 19.4083C66.4437 18.3197 66.3739 16.1953 67.9397 15.0587C68.6552 14.5378 69.5372 14.2983 70.4178 14.3857C71.0892 14.4228 71.7336 14.6622 72.2664 15.0724C72.5928 15.3247 72.866 15.639 73.0703 15.9974C73.2746 16.3557 73.4059 16.7509 73.4568 17.1602C73.4799 17.3417 73.4921 17.5244 73.4934 17.7073C73.4969 17.8012 73.4614 17.8218 73.3733 17.8218C72.9574 17.8172 72.5411 17.8172 72.1245 17.8218C72.0272 17.823 72.01 17.7863 72.01 17.6993C72.0214 17.4275 71.9826 17.1559 71.8955 16.8981C71.6598 16.1999 71.163 15.8256 70.4419 15.7214C70.0289 15.6533 69.6051 15.7079 69.2229 15.8782C68.8261 16.0535 68.5121 16.3749 68.3461 16.7756C68.1801 17.1763 68.1747 17.6256 68.3312 18.0301C68.4621 18.333 68.6715 18.5954 68.9379 18.7902C69.335 19.0799 69.7649 19.322 70.2187 19.5113C70.354 19.5736 70.4899 19.6346 70.6259 19.6955C70.9315 19.8326 71.2371 19.9696 71.535 20.1225C71.9781 20.3371 72.3889 20.613 72.7552 20.942C73.4854 21.6254 73.7544 22.4747 73.6113 23.4533C73.4535 24.5403 72.8705 25.2709 71.9814 25.7266L71.9826 25.7266C71.6599 25.9077 71.313 26.0418 70.9524 26.125L70.9296 26.1307C70.898 26.137 70.8661 26.1418 70.834 26.145ZM64.4739 17.5529C64.2521 16.5728 63.677 15.7087 62.8583 15.1259C62.0397 14.543 61.035 14.2822 60.0362 14.3934C59.0374 14.5046 58.1147 14.9799 57.4443 15.7285C56.7738 16.4771 56.4028 17.4465 56.402 18.4515V22.1257C56.3977 22.3344 56.4141 22.543 56.4512 22.7484C56.758 24.3268 57.6702 25.3959 59.1766 25.9533C59.1766 25.9533 59.9309 26.1822 60.4665 26.1822C60.8991 26.1851 61.3287 26.1118 61.7359 25.9659C63.4231 25.3203 64.5826 23.8804 64.5849 22.0479V18.5064C64.5832 18.1855 64.5459 17.8657 64.4739 17.5529ZM63.1003 22.1532C63.0978 22.7869 62.8696 23.3989 62.4565 23.8795C62.0435 24.3601 61.4727 24.6778 60.8466 24.7755C59.6115 24.9529 58.6111 24.2661 58.1487 23.3104C57.9735 22.9523 57.883 22.5587 57.8843 22.16V20.2806C57.8843 20.0659 57.882 19.8511 57.8797 19.6365L57.8797 19.6361V19.6359C57.8751 19.2065 57.8705 18.7772 57.8843 18.3485C57.9255 17.292 58.4211 16.493 59.3585 16.002C60.4105 15.4514 61.7371 15.7731 62.5017 16.738C62.8874 17.2124 63.0973 17.8056 63.0957 18.4171C63.1049 19.6617 63.1053 20.9055 63.0969 22.1486L63.1003 22.1532Z" fill="black"/>
</g>
</svg>
