<svg width="29" height="19" viewBox="0 0 29 19" fill="none" xmlns="http://www.w3.org/2000/svg">
<mask id="mask0_301_18" style="mask-type:luminance" maskUnits="userSpaceOnUse" x="0" y="-3" width="27" height="26">
<path d="M0.522949 -3H26.5229V23H0.522949V-3Z" fill="white"/>
</mask>
<g mask="url(#mask0_301_18)">
<path d="M22.0487 17.8476C22.0956 17.8008 22.122 17.7372 22.122 17.6709C22.122 17.6046 22.0956 17.541 22.0487 17.4941L17.8273 13.2726C19.0017 11.8419 19.6039 10.0226 19.5111 8.16832C19.4144 6.23595 18.5704 4.41683 17.1575 3.0951C15.7445 1.77337 13.8732 1.05252 11.9387 1.08478C10.0042 1.11703 8.15792 1.89987 6.78982 3.26797C5.42172 4.63607 4.63888 6.48232 4.60663 8.41683C4.57437 10.3513 5.29522 12.2227 6.61695 13.6356C7.93868 15.0486 9.7578 15.8925 11.6902 15.9893C13.5445 16.0821 15.3637 15.4799 16.7945 14.3054L21.0159 18.5269C21.0628 18.5738 21.1264 18.6001 21.1927 18.6001C21.259 18.6001 21.3226 18.5738 21.3695 18.5269L22.0487 17.8476ZM18.06 8.54162C18.06 10.132 17.4282 11.6572 16.3036 12.7818C15.1791 13.9063 13.6538 14.5381 12.0635 14.5381C10.4731 14.5381 8.94786 13.9063 7.8233 12.7818C6.69874 11.6572 6.06697 10.132 6.06697 8.54162C6.06697 6.95125 6.69874 5.42601 7.8233 4.30145C8.94786 3.17689 10.4731 2.54512 12.0635 2.54512C13.6538 2.54512 15.1791 3.17689 16.3036 4.30145C17.4282 5.42601 18.06 6.95125 18.06 8.54162Z" fill="black" stroke="black" stroke-width="0.5" stroke-linejoin="round"/>
</g>
</svg>
