<svg xmlns="http://www.w3.org/2000/svg" width="21" height="22" viewBox="0 0 21 22" fill="none">
<path d="M6.14648 18.27C6.14648 19.1153 6.83248 19.8013 7.67773 19.8013H17.7192C18.5645 19.8013 19.2505 19.1153 19.2505 18.27V8.20927C19.2505 7.80316 19.0892 7.41368 18.802 7.12651C18.5148 6.83935 18.1253 6.67802 17.7192 6.67802H7.67773C7.27162 6.67802 6.88214 6.83935 6.59498 7.12651C6.30781 7.41368 6.14648 7.80316 6.14648 8.20927V18.27ZM7.67773 18.4888C7.61972 18.4888 7.56408 18.4657 7.52305 18.4247C7.48203 18.3837 7.45898 18.328 7.45898 18.27V8.20927C7.45898 8.08764 7.55698 7.99052 7.67773 7.99052H17.7192C17.7773 7.99052 17.8329 8.01357 17.8739 8.05459C17.9149 8.09561 17.938 8.15125 17.938 8.20927V18.27C17.938 18.328 17.9149 18.3837 17.8739 18.4247C17.8329 18.4657 17.7773 18.4888 17.7192 18.4888H7.67773Z" fill="#2E6F6E"/>
<path d="M1.74609 12.1459C1.74598 12.347 1.7855 12.5462 1.8624 12.7321C1.9393 12.918 2.05208 13.0869 2.19428 13.2292C2.33648 13.3715 2.50532 13.4843 2.69116 13.5613C2.87699 13.6383 3.07618 13.678 3.27734 13.678H4.59422C4.76827 13.678 4.93519 13.6088 5.05826 13.4858C5.18133 13.3627 5.25047 13.1958 5.25047 13.0217C5.25047 12.8477 5.18133 12.6808 5.05826 12.5577C4.93519 12.4346 4.76827 12.3655 4.59422 12.3655H3.27734C3.21933 12.3655 3.16369 12.3424 3.12266 12.3014C3.08164 12.2604 3.05859 12.2047 3.05859 12.1467L3.06297 3.83248C3.06297 3.71173 3.16009 3.61373 3.28172 3.61373H11.5942C11.6522 3.61373 11.7079 3.63678 11.7489 3.6778C11.7899 3.71882 11.813 3.77446 11.813 3.83248V5.15373C11.813 5.32778 11.8821 5.4947 12.0052 5.61777C12.1283 5.74084 12.2952 5.80998 12.4692 5.80998C12.6433 5.80998 12.8102 5.74084 12.9333 5.61777C13.0563 5.4947 13.1255 5.32778 13.1255 5.15373V3.83248C13.1255 3.42637 12.9641 3.03689 12.677 2.74972C12.3898 2.46256 12.0003 2.30123 11.5942 2.30123H3.28172C2.87561 2.30123 2.48613 2.46256 2.19896 2.74972C1.9118 3.03689 1.75047 3.42637 1.75047 3.83248L1.74609 12.1459Z" fill="#2E6F6E"/>
</svg>