<svg width="9" height="12" viewBox="0 0 9 12" fill="none" xmlns="http://www.w3.org/2000/svg">
<path id="Vector" fill-rule="evenodd" clip-rule="evenodd" d="M4.5 0C4.72593 0 4.90909 0.191878 4.90909 0.428571V7.53677L6.25618 6.12553C6.41594 5.95816 6.67497 5.95816 6.83473 6.12553C6.99449 6.29289 6.99449 6.56425 6.83473 6.73162L4.78927 8.87447C4.62951 9.04184 4.37049 9.04184 4.21073 8.87447L2.16527 6.73162C2.00551 6.56425 2.00551 6.29289 2.16527 6.12553C2.32503 5.95816 2.58406 5.95816 2.74382 6.12553L4.09091 7.53677V0.428571C4.09091 0.191878 4.27407 0 4.5 0ZM1.43182 4.28571C1.26907 4.28571 1.11299 4.35344 0.997912 4.474C0.882833 4.59456 0.818182 4.75808 0.818182 4.92857V10.5C0.818182 10.6705 0.882833 10.834 0.997912 10.9546C1.11299 11.0751 1.26907 11.1429 1.43182 11.1429H7.56818C7.73093 11.1429 7.88701 11.0751 8.00209 10.9546C8.11717 10.834 8.18182 10.6705 8.18182 10.5V4.92857C8.18182 4.75808 8.11717 4.59456 8.00209 4.474C7.88701 4.35344 7.73093 4.28571 7.56818 4.28571H6.54545C6.31952 4.28571 6.13636 4.09384 6.13636 3.85714C6.13636 3.62045 6.31952 3.42857 6.54545 3.42857H7.56818C7.94792 3.42857 8.31211 3.58661 8.58063 3.86791C8.84915 4.14922 9 4.53075 9 4.92857V10.5C9 10.8978 8.84915 11.2794 8.58063 11.5607C8.31211 11.842 7.94792 12 7.56818 12H1.43182C1.05208 12 0.687888 11.842 0.41937 11.5607C0.150852 11.2794 0 10.8978 0 10.5V4.92857C0 4.53075 0.150852 4.14922 0.41937 3.86791C0.687888 3.58661 1.05208 3.42857 1.43182 3.42857H2.45455C2.68048 3.42857 2.86364 3.62045 2.86364 3.85714C2.86364 4.09384 2.68048 4.28571 2.45455 4.28571H1.43182Z" fill="white"/>
</svg>
