<?xml version="1.0" encoding="UTF-8"?>
<svg id="Layer_2" data-name="Layer 2" xmlns="http://www.w3.org/2000/svg" viewBox="0 0 33.82 33.89">
  <defs>
    <style>
      .cls-1 {
        fill: #132237;
      }
    </style>
  </defs>
  <g id="Layer_1-2" data-name="Layer 1">
    <g>
      <path class="cls-1" d="M16.91,0C7.57,0,0,7.58,0,16.94s7.57,16.94,16.91,16.94,16.91-7.58,16.91-16.94c.01-9.36-7.57-16.94-16.91-16.94Zm0,32.34c-8.49,0-15.38-6.89-15.38-15.41S8.41,1.52,16.91,1.52s15.38,6.89,15.38,15.41-6.88,15.41-15.38,15.41Z"/>
      <path class="cls-1" d="M17.65,27.1v-9.27h3.11l.47-3.62h-3.57v-2.3c0-1.04,.29-1.76,1.79-1.76h1.91v-3.23c-.33-.04-1.46-.14-2.78-.14-2.75,0-4.64,1.68-4.64,4.78v2.67h-3.11v3.62h3.11v9.27h3.71Z"/>
    </g>
  </g>
</svg>